<svg xmlns="http://www.w3.org/2000/svg" height="135pt" version="1.1" viewBox="-21 0 135 135.28962" width="135pt">
<g id="surface1">
<path d="M 46.324219 0 C 7.765625 0 0.152344 30.300781 0.152344 49.417969 C 0.152344 68.535156 10.972656 69.617188 10.972656 69.617188 L 22.515625 69.617188 L 22.515625 80.140625 C 22.515625 85.714844 30.550781 85.921875 32.011719 85.914062 L 32.011719 73.472656 L 37.269531 73.472656 L 37.269531 85.914062 L 43.316406 85.914062 L 43.316406 73.472656 L 48.578125 73.472656 L 48.578125 85.914062 L 54.625 85.914062 L 54.625 73.472656 L 59.882812 73.472656 L 59.882812 85.914062 L 60.367188 85.914062 C 60.367188 85.914062 70.109375 86.273438 70.109375 80.140625 L 70.109375 69.617188 L 81.648438 69.617188 C 81.648438 69.617188 92.46875 68.535156 92.46875 49.417969 C 92.46875 30.300781 84.96875 0 46.324219 0 Z M 33.785156 52.042969 C 27.777344 54.863281 20.363281 53.101562 20.363281 53.101562 C 20.363281 53.101562 6 48.746094 16.484375 34.03125 C 16.484375 34.03125 22.605469 26.570312 30.964844 29.777344 C 38.949219 32.878906 39.78125 49.222656 33.785156 52.042969 Z M 46.324219 63.96875 C 44.023438 64.429688 40.316406 63.277344 40.777344 60.511719 C 41.238281 57.753906 46.324219 50.824219 46.324219 50.824219 C 46.324219 50.824219 51.390625 57.753906 51.875 60.511719 C 52.359375 63.277344 48.613281 64.429688 46.324219 63.96875 Z M 72.285156 53.101562 C 72.285156 53.101562 64.820312 54.863281 58.859375 52.042969 C 52.90625 49.222656 53.640625 32.878906 61.6875 29.765625 C 70.046875 26.65625 76.164062 34.03125 76.164062 34.03125 C 86.652344 48.746094 72.285156 53.101562 72.285156 53.101562 Z M 72.285156 53.101562 " style=" stroke:none;fill-rule:nonzero;fill:rgb(0%,0%,0%);fill-opacity:1;" />
<path d="M 0.589844 101.011719 C -0.691406 104.25 0.894531 107.914062 4.132812 109.195312 C 7.371094 110.480469 11.035156 108.894531 12.316406 105.65625 C 12.398438 105.449219 12.472656 105.234375 12.53125 105.015625 C 12.675781 104.613281 12.773438 104.195312 12.832031 103.773438 L 29.136719 109.296875 L 41.4375 105.179688 L 15.316406 96.3125 C 15.535156 95.945312 15.714844 95.558594 15.851562 95.15625 C 16.964844 91.859375 15.203125 88.273438 11.898438 87.160156 C 8.601562 86.039062 5.023438 87.808594 3.90625 91.109375 C 3.234375 93.09375 3.589844 95.28125 4.855469 96.945312 C 2.847656 97.511719 1.253906 99.035156 0.589844 101.011719 Z M 0.589844 101.011719 " style=" stroke:none;fill-rule:nonzero;fill:rgb(0%,0%,0%);fill-opacity:1;" />
<path d="M 88.117188 113.066406 C 84.886719 111.90625 81.324219 113.582031 80.164062 116.816406 C 79.996094 117.28125 79.886719 117.761719 79.835938 118.253906 L 64.613281 112.953125 L 52.296875 117.148438 L 77.300781 125.777344 C 77.078125 126.144531 76.890625 126.527344 76.75 126.9375 C 75.640625 130.238281 77.414062 133.8125 80.710938 134.921875 C 84.015625 136.03125 87.59375 134.257812 88.703125 130.957031 C 89.367188 128.980469 89.011719 126.804688 87.757812 125.140625 C 91.121094 124.242188 93.113281 120.777344 92.203125 117.414062 C 91.65625 115.378906 90.128906 113.753906 88.132812 113.078125 Z M 88.117188 113.066406 " style=" stroke:none;fill-rule:nonzero;fill:rgb(0%,0%,0%);fill-opacity:1;" />
<path d="M 87.746094 96.957031 C 89.890625 94.183594 89.382812 90.203125 86.613281 88.058594 C 83.839844 85.914062 79.855469 86.421875 77.710938 89.191406 C 76.121094 91.25 75.945312 94.074219 77.269531 96.3125 L 12.832031 118.253906 C 12.78125 117.832031 12.691406 117.414062 12.554688 117.011719 C 11.4375 113.703125 7.855469 111.925781 4.550781 113.039062 C 1.242188 114.15625 -0.535156 117.742188 0.578125 121.050781 C 1.257812 123.050781 2.890625 124.585938 4.933594 125.132812 C 2.808594 127.902344 3.335938 131.867188 6.105469 133.992188 C 8.878906 136.109375 12.84375 135.582031 14.964844 132.8125 C 16.25 131.128906 16.613281 128.921875 15.921875 126.921875 C 15.789062 126.519531 15.609375 126.132812 15.390625 125.765625 L 79.835938 103.839844 C 79.882812 104.261719 79.976562 104.675781 80.105469 105.078125 C 81.222656 108.386719 84.808594 110.164062 88.113281 109.050781 C 91.417969 107.929688 93.199219 104.347656 92.082031 101.039062 C 91.410156 99.039062 89.773438 97.507812 87.734375 96.957031 Z M 87.746094 96.957031 " style=" stroke:none;fill-rule:nonzero;fill:rgb(0%,0%,0%);fill-opacity:1;" />
</g>
</svg>